<?xml version="1.0" encoding="UTF-8"?>
<svg width="24px" height="24px" viewBox="0 0 24 24" version="1.1" xmlns="http://www.w3.org/2000/svg" xmlns:xlink="http://www.w3.org/1999/xlink">
    <!-- Generator: Sketch 53.2 (72643) - https://sketchapp.com -->
    <title>apollo</title>
    <desc>Created with Sketch.</desc>
    <g id="apollo" stroke="none" stroke-width="1" fill="none" fill-rule="evenodd">
        <g id="apollo-seeklogo.com" transform="translate(2.000000, 2.000000)" fill="#989898" fill-rule="nonzero">
            <path d="M12.5177344,13.9468201 L14.6763281,13.9468201 L11.2304688,5.00381642 L8.84382813,5.00381642 L5.39796875,13.9468201 L7.55671875,13.9468201 L8.11984375,12.4319704 L11.3757031,12.4319704 L10.7863281,10.7557139 L8.64257813,10.7557139 L10.0371094,6.90773011 L12.5177344,13.9468201 Z M19.6358594,7.32565362 C19.5591406,7.04940254 19.2738281,6.88713628 18.9964063,6.96416783 C18.7200781,7.04088688 18.558125,7.327138 18.6348438,7.6034672 C18.8514844,8.38354837 18.96125,9.18987965 18.96125,10.0000391 C18.96125,14.9413084 14.94125,18.9611678 10,18.9611678 C5.05875,18.9611678 1.03882813,14.9413084 1.03882813,10.0000391 C1.03882813,5.05869164 5.05875,1.03875406 10,1.03875406 C12.0932031,1.03875406 14.1185938,1.78235071 15.7171094,3.10563713 C15.6549219,3.25407521 15.6203906,3.41696647 15.6203906,3.58790464 C15.6203906,4.27814171 16.1799219,4.83767515 16.8701563,4.83767515 C17.5603906,4.83767515 18.1199219,4.27814171 18.1199219,3.58790464 C18.1199219,2.89766757 17.5603906,2.33813413 16.8701563,2.33813413 C16.7372656,2.33813413 16.609375,2.35930609 16.4892188,2.39774374 C14.6892188,0.863753374 12.3838281,0 10,0 C4.48601563,0 0,4.48595502 0,10.0000391 C0,15.514045 4.48601563,20 10,20 C15.5139844,20 20,15.514045 20,10.0000391 C20,9.09597303 19.8775781,8.19612577 19.6358594,7.32565362 Z" id="Shape"></path>
        </g>
    </g>
</svg>