<?xml version="1.0" encoding="UTF-8"?>
<svg width="16px" height="16px" viewBox="0 0 16 16" version="1.1" xmlns="http://www.w3.org/2000/svg" xmlns:xlink="http://www.w3.org/1999/xlink">
    <!-- Generator: Sketch 53.2 (72643) - https://sketchapp.com -->
    <title>components</title>
    <desc>Created with Sketch.</desc>
    <g id="components" stroke="none" stroke-width="1" fill="none" fill-rule="evenodd">
        <path d="M7.53333333,8.46666667 L13.1333333,8.46666667 L13.1333333,15 L1,15 L1,2.86666667 L7.53333333,2.86666667 L7.53333333,8.46666667 Z M1.93333333,3.8 L1.93333333,8.46666667 L6.6,8.46666667 L6.6,3.8 L1.93333333,3.8 Z M6.6,14.0666667 L6.6,9.4 L1.93333333,9.4 L1.93333333,14.0666667 L6.6,14.0666667 Z M12.2,14.0666667 L12.2,9.4 L7.53333333,9.4 L7.53333333,14.0666667 L12.2,14.0666667 Z M9.4,1 L15,1 L15,6.6 L9.4,6.6 L9.4,1 Z M14.0666667,5.66666667 L14.0666667,1.93333333 L10.3333333,1.93333333 L10.3333333,5.66666667 L14.0666667,5.66666667 Z" id="x" fill="#989898" fill-rule="nonzero"></path>
    </g>
</svg>