<?xml version="1.0" encoding="UTF-8"?>
<svg width="24px" height="24px" viewBox="0 0 24 24" version="1.1" xmlns="http://www.w3.org/2000/svg" xmlns:xlink="http://www.w3.org/1999/xlink">
    <!-- Generator: Sketch 53.2 (72643) - https://sketchapp.com -->
    <title>data</title>
    <desc>Created with Sketch.</desc>
    <g id="data" stroke="none" stroke-width="1" fill="none" fill-rule="evenodd">
        <path d="M11.375,3.25 C11.8437523,3.25 12.3629529,3.27604141 12.9326172,3.328125 C13.5022815,3.38020859 14.0719373,3.46972593 14.6416016,3.59667969 C15.2112659,3.72363345 15.7532526,3.89778535 16.2675781,4.11914062 C16.7819036,4.3404959 17.214842,4.61718584 17.5664062,4.94921875 C17.7682302,5.13802178 17.9326166,5.35286338 18.0595703,5.59375 C18.1865241,5.83463662 18.25,6.09505068 18.25,6.375 L18.25,17.625 C18.25,17.9179702 18.1865241,18.1800119 18.0595703,18.4111328 C17.9326166,18.6422538 17.7682302,18.8554678 17.5664062,19.0507812 C17.2278629,19.3828142 16.7998073,19.6578765 16.2822266,19.8759766 C15.7646458,20.0940766 15.2177763,20.2682285 14.6416016,20.3984375 C14.0654268,20.5286465 13.4908883,20.6197914 12.9179688,20.671875 C12.3450492,20.7239586 11.8307314,20.75 11.375,20.75 C10.9062477,20.75 10.3870471,20.7239586 9.81738281,20.671875 C9.24771851,20.6197914 8.67806274,20.5302741 8.10839844,20.4033203 C7.53873413,20.2763666 6.99674736,20.1022146 6.48242188,19.8808594 C5.96809639,19.6595041 5.53515801,19.3828142 5.18359375,19.0507812 C4.98176982,18.8619782 4.81738345,18.6471366 4.69042969,18.40625 C4.56347593,18.1653634 4.5,17.9049493 4.5,17.625 L4.5,6.375 C4.5,6.08202979 4.56347593,5.81998813 4.69042969,5.58886719 C4.81738345,5.35774624 4.98176982,5.14453223 5.18359375,4.94921875 C5.52213711,4.61718584 5.95019272,4.34212349 6.46777344,4.12402344 C6.98535415,3.90592339 7.53222368,3.73177148 8.10839844,3.6015625 C8.68457319,3.47135352 9.25911172,3.38020859 9.83203125,3.328125 C10.4049508,3.27604141 10.9192686,3.25 11.375,3.25 Z M11.375,4.5 C11.0429671,4.5 10.6962909,4.51139312 10.3349609,4.53417969 C9.97363101,4.55696626 9.61067891,4.59602837 9.24609375,4.65136719 C8.88150859,4.70670601 8.52506685,4.77831987 8.17675781,4.86621094 C7.82844878,4.954102 7.49804844,5.05989521 7.18554688,5.18359375 C7.08789014,5.22265645 6.95768311,5.2828772 6.79492188,5.36425781 C6.63216064,5.44563843 6.47265703,5.53841094 6.31640625,5.64257812 C6.16015547,5.74674531 6.02669326,5.86230405 5.91601562,5.98925781 C5.80533799,6.11621157 5.75,6.24479102 5.75,6.375 C5.75,6.42708359 5.75976553,6.47591123 5.77929688,6.52148438 C5.79882822,6.56705752 5.82486963,6.61262998 5.85742188,6.65820312 C5.99414131,6.8665375 6.19107944,7.04882734 6.44824219,7.20507812 C6.70540493,7.36132891 6.99511558,7.49804629 7.31738281,7.61523438 C7.63965005,7.73242246 7.98307109,7.83170532 8.34765625,7.91308594 C8.71224141,7.99446655 9.07519351,8.05957007 9.43652344,8.10839844 C9.79785337,8.15722681 10.1461572,8.19303374 10.4814453,8.21582031 C10.8167334,8.23860688 11.114582,8.25 11.375,8.25 C11.635418,8.25 11.9332666,8.23860688 12.2685547,8.21582031 C12.6038428,8.19303374 12.9521466,8.15722681 13.3134766,8.10839844 C13.6748065,8.05957007 14.0377586,7.99446655 14.4023438,7.91308594 C14.7669289,7.83170532 15.11035,7.73242246 15.4326172,7.61523438 C15.7548844,7.49804629 16.0429675,7.36132891 16.296875,7.20507812 C16.5507825,7.04882734 16.7493482,6.8665375 16.8925781,6.65820312 C16.9251304,6.61262998 16.9511718,6.56705752 16.9707031,6.52148438 C16.9902345,6.47591123 17,6.42708359 17,6.375 C17,6.24479102 16.944662,6.11621157 16.8339844,5.98925781 C16.7233067,5.86230405 16.5898445,5.74674531 16.4335938,5.64257812 C16.277343,5.53841094 16.1178394,5.44563843 15.9550781,5.36425781 C15.7923169,5.2828772 15.6621099,5.22265645 15.5644531,5.18359375 C15.2519516,5.05989521 14.9215512,4.954102 14.5732422,4.86621094 C14.2249332,4.77831987 13.8684914,4.70670601 13.5039062,4.65136719 C13.1393211,4.59602837 12.776369,4.55696626 12.4150391,4.53417969 C12.0537091,4.51139312 11.7070329,4.5 11.375,4.5 Z M11.375,19.5 C11.7070329,19.5 12.0537091,19.4886069 12.4150391,19.4658203 C12.776369,19.4430337 13.1393211,19.4039716 13.5039062,19.3486328 C13.8684914,19.293294 14.2249332,19.2233077 14.5732422,19.1386719 C14.9215512,19.054036 15.2519516,18.9466152 15.5644531,18.8164062 C15.6621099,18.7773436 15.7923169,18.7171228 15.9550781,18.6357422 C16.1178394,18.5543616 16.277343,18.4615891 16.4335938,18.3574219 C16.5898445,18.2532547 16.7233067,18.1376959 16.8339844,18.0107422 C16.944662,17.8837884 17,17.755209 17,17.625 L17,8.23046875 C16.6289044,8.47135537 16.2089867,8.67317627 15.7402344,8.8359375 C15.271482,8.99869873 14.7848333,9.12890576 14.2802734,9.2265625 C13.7757136,9.32421924 13.272789,9.39420552 12.7714844,9.43652344 C12.2701798,9.47884136 11.8046896,9.5 11.375,9.5 C10.9453104,9.5 10.4781926,9.47884136 9.97363281,9.43652344 C9.469073,9.39420552 8.96614834,9.32421924 8.46484375,9.2265625 C7.96353916,9.12890576 7.47851797,8.99869873 7.00976562,8.8359375 C6.54101328,8.67317627 6.12109561,8.47135537 5.75,8.23046875 L5.75,17.625 C5.75,17.755209 5.80533799,17.8837884 5.91601562,18.0107422 C6.02669326,18.1376959 6.16015547,18.2532547 6.31640625,18.3574219 C6.47265703,18.4615891 6.63216064,18.5543616 6.79492188,18.6357422 C6.95768311,18.7171228 7.08789014,18.7773436 7.18554688,18.8164062 C7.49804844,18.9466152 7.82844878,19.054036 8.17675781,19.1386719 C8.52506685,19.2233077 8.88150859,19.293294 9.24609375,19.3486328 C9.61067891,19.4039716 9.97363101,19.4430337 10.3349609,19.4658203 C10.6962909,19.4886069 11.0429671,19.5 11.375,19.5 Z" id="x" fill="#989898" fill-rule="nonzero"></path>
    </g>
</svg>