<?xml version="1.0" encoding="UTF-8"?>
<svg width="24px" height="24px" viewBox="0 0 24 24" version="1.1" xmlns="http://www.w3.org/2000/svg" xmlns:xlink="http://www.w3.org/1999/xlink">
    <!-- Generator: Sketch 53.2 (72643) - https://sketchapp.com -->
    <title>edit</title>
    <desc>Created with Sketch.</desc>
    <g id="edit" stroke="none" stroke-width="1" fill="none" fill-rule="evenodd">
        <path d="M21,5.94433594 C21,6.33105662 20.9267585,6.70605287 20.7802734,7.06933594 C20.6337883,7.432619 20.4199233,7.75488141 20.1386719,8.03613281 L8.56347656,19.6113281 L3,21 L4.38867188,15.4365234 L15.9638672,3.86132812 C16.2451186,3.58007672 16.567381,3.36621167 16.9306641,3.21972656 C17.2939471,3.07324146 17.6689434,3 18.0556641,3 C18.459963,3 18.8408185,3.07763594 19.1982422,3.23291016 C19.5556658,3.38818437 19.8676744,3.59911976 20.1342773,3.86572266 C20.4008802,4.13232555 20.6118156,4.44433415 20.7670898,4.80175781 C20.9223641,5.15918147 21,5.54003704 21,5.94433594 Z M6,15.4341818 C6.61673036,15.6378192 7.14763414,15.9621796 7.59272727,16.4072727 C8.03782041,16.8523659 8.3621808,17.3832696 8.56581818,18 L18,8.55709091 L15.4429091,6 L6,15.4341818 Z M4,20 L7,19.2522796 C6.93920942,18.972643 6.84042622,18.7082079 6.70364742,18.4589666 C6.56686862,18.2097252 6.40121678,17.9878429 6.20668693,17.7933131 C6.01215708,17.5987832 5.7902748,17.4331314 5.54103343,17.2963526 C5.29179207,17.1595738 5.02735702,17.0607906 4.74772036,17 L4,20 Z M18.783848,8 C18.9422019,7.84164608 19.0942194,7.69279563 19.239905,7.55344418 C19.3855906,7.41409273 19.5154389,7.2668258 19.6294537,7.11163895 C19.7434685,6.95645211 19.8337289,6.78859948 19.9002375,6.60807601 C19.9667462,6.42755254 20,6.21694499 20,5.97624703 C20,5.70387829 19.947744,5.4489323 19.8432304,5.21140143 C19.7387168,4.97387055 19.5962004,4.76484651 19.415677,4.58432304 C19.2351535,4.40379957 19.0261295,4.26128318 18.7885986,4.1567696 C18.5510677,4.05225601 18.2961217,4 18.023753,4 C17.783055,4 17.5724475,4.03325382 17.391924,4.09976247 C17.2114005,4.16627112 17.0435479,4.2565315 16.888361,4.37054632 C16.7331742,4.48456114 16.5859073,4.61440941 16.4465558,4.76009501 C16.3072044,4.90578062 16.1583539,5.0577981 16,5.21615202 L18.783848,8 Z" id="x" fill="#989898" fill-rule="nonzero"></path>
    </g>
</svg>