<?xml version="1.0" encoding="UTF-8"?>
<svg width="24px" height="24px" viewBox="0 0 24 24" version="1.1" xmlns="http://www.w3.org/2000/svg" xmlns:xlink="http://www.w3.org/1999/xlink">
    <!-- Generator: Sketch 53.2 (72643) - https://sketchapp.com -->
    <title>forms</title>
    <desc>Created with Sketch.</desc>
    <g id="forms" stroke="none" stroke-width="1" fill="none" fill-rule="evenodd">
        <path d="M4.49023438,13.2207031 L4.49023438,10.7402344 L12.0097656,10.7402344 L12.0097656,13.2207031 L4.49023438,13.2207031 Z M14.5097656,15.7597656 L1.99023438,15.7597656 L1.99023438,8.24023438 L14.5097656,8.24023438 L14.5097656,9.50976562 L3.25976562,9.50976562 L3.25976562,14.4902344 L14.5097656,14.4902344 L14.5097656,15.7597656 Z M22.0097656,8.24023438 L22.0097656,15.7597656 L18.2402344,15.7597656 L18.2402344,14.4902344 L20.7402344,14.4902344 L20.7402344,9.50976562 L18.2402344,9.50976562 L18.2402344,8.24023438 L22.0097656,8.24023438 Z M17.0097656,17.3027344 C17.7324255,17.9277375 18.5624953,18.2402344 19.5,18.2402344 L19.5097656,18.2402344 L19.5097656,19.5097656 L19.5,19.5097656 C18.3541609,19.5097656 17.319015,19.1516963 16.3945312,18.4355469 C15.9387998,18.7871111 15.4456407,19.0540355 14.9150391,19.2363281 C14.3844375,19.4186207 13.82943,19.5097656 13.25,19.5097656 L13.2402344,19.5097656 L13.2402344,18.2402344 L13.25,18.2402344 C14.1940151,18.2402344 15.024085,17.937503 15.7402344,17.3320312 L15.7402344,6.62890625 C15.401691,6.34244648 15.022463,6.12597729 14.6025391,5.97949219 C14.1826151,5.83300708 13.7317732,5.75976562 13.25,5.75976562 L13.2402344,5.75976562 L13.2402344,4.49023438 L13.25,4.49023438 C13.8424509,4.49023438 14.4039687,4.57812412 14.9345703,4.75390625 C15.4651719,4.92968838 15.9518207,5.18684727 16.3945312,5.52539062 C17.2929732,4.83528301 18.3281191,4.49023438 19.5,4.49023438 L19.5097656,4.49023438 L19.5097656,5.75976562 L19.5,5.75976562 C18.5364535,5.75976562 17.7063837,6.0592418 17.0097656,6.65820312 L17.0097656,17.3027344 Z" id="x" fill="#989898" fill-rule="nonzero"></path>
    </g>
</svg>