<?xml version="1.0" encoding="UTF-8"?>
<svg width="24px" height="24px" viewBox="0 0 24 24" version="1.1" xmlns="http://www.w3.org/2000/svg" xmlns:xlink="http://www.w3.org/1999/xlink">
    <!-- Generator: Sketch 53.2 (72643) - https://sketchapp.com -->
    <title>generate</title>
    <desc>Created with Sketch.</desc>
    <g id="generate" stroke="none" stroke-width="1" fill="none" fill-rule="evenodd">
        <path d="M22,2 L22,12 L17,12 L17,17 L12,17 L12,22 L2,22 L2,12 L7,12 L7,7 L12,7 L12,2 L22,2 Z M10.75,13.25 L3.25,13.25 L3.25,20.75 L10.75,20.75 L10.75,13.25 Z M15.75,8.25 L8.25,8.25 L8.25,12 L12,12 L12,15.75 L15.75,15.75 L15.75,8.25 Z M20.75,3.25 L13.25,3.25 L13.25,7 L17,7 L17,10.75 L20.75,10.75 L20.75,3.25 Z M19.5,18.25 L22,18.25 L22,19.5 L19.5,19.5 L19.5,22 L18.25,22 L18.25,19.5 L15.75,19.5 L15.75,18.25 L18.25,18.25 L18.25,15.75 L19.5,15.75 L19.5,18.25 Z" id="ï‰" fill="#989898" fill-rule="nonzero"></path>
    </g>
</svg>