<?xml version="1.0" encoding="UTF-8"?>
<svg width="24px" height="24px" viewBox="0 0 24 24" version="1.1" xmlns="http://www.w3.org/2000/svg" xmlns:xlink="http://www.w3.org/1999/xlink">
    <!-- Generator: Sketch 53.2 (72643) - https://sketchapp.com -->
    <title>graphql</title>
    <desc>Created with Sketch.</desc>
    <g id="graphql" stroke="none" stroke-width="1" fill="none" fill-rule="evenodd">
        <g id="GraphQL_Logo" transform="translate(3.000000, 2.000000)" fill="#E535AB" fill-rule="nonzero">
            <polygon id="Rectangle" transform="translate(5.418247, 7.950005) rotate(-149.999272) translate(-5.418247, -7.950005) " points="5.02055075 -0.235608769 5.87255234 -0.23854263 5.81594297 16.135619 4.96394138 16.1385528"></polygon>
            <rect id="Rectangle" x="1" y="14" width="16" height="1"></rect>
            <polygon id="Rectangle" transform="translate(5.420206, 16.152444) rotate(-149.999272) translate(-5.420206, -16.152444) " points="0.674074 15.7444852 10.1692724 15.7117885 10.1663386 16.5604026 0.67114014 16.5930992"></polygon>
            <polygon id="Rectangle" transform="translate(12.577747, 3.852495) rotate(-149.999272) translate(-12.577747, -3.852495) " points="7.83161457 3.44453619 17.326813 3.41183955 17.3238791 4.26045361 7.82868071 4.29315025"></polygon>
            <polygon id="Rectangle" transform="translate(5.422490, 3.849270) rotate(-120.000728) translate(-5.422490, -3.849270) " points="5.014531 -0.896861877 5.86314506 -0.899795738 5.83044842 8.59540269 4.98183437 8.59833655"></polygon>
            <polygon id="Rectangle" transform="translate(12.583605, 7.950158) rotate(-120.000728) translate(-12.583605, -7.950158) " points="4.3979907 7.55246205 20.7721523 7.49585268 20.7692184 8.34785427 4.39505684 8.40446364"></polygon>
            <rect id="Rectangle" x="2" y="5" width="1" height="10"></rect>
            <rect id="Rectangle" x="15" y="5" width="1" height="10"></rect>
            <polygon id="Rectangle" transform="translate(12.577711, 16.147735) rotate(-120.000728) translate(-12.577711, -16.147735) " points="12.2212998 12.0198879 12.9625591 12.0173252 12.9341219 20.2755815 12.1928626 20.2781442"></polygon>
            <path d="M17.7294839,14.9997116 C17.1800209,15.9564557 15.9551763,16.2830091 14.9993396,15.7330245 C14.043503,15.1830398 13.7172593,13.9570325 14.2667223,13.0002884 C14.8161853,12.0435443 16.0410299,11.7169909 16.9968666,12.2669755 C17.9584268,12.8226892 18.2846705,14.0429675 17.7294839,14.9997116" id="Path"></path>
            <path d="M3.73302447,6.99971163 C3.18303984,7.95645572 1.95703245,8.28300909 1.00028837,7.73302447 C0.0435442793,7.18303984 -0.283009091,5.95703245 0.266975533,5.00028837 C0.816960157,4.04354428 2.04296755,3.71699091 2.99971163,4.26697553 C3.95645572,4.82268916 4.28300909,6.04296755 3.73302447,6.99971163" id="Path"></path>
            <path d="M0.266975533,14.9997116 C-0.283009091,14.0429675 0.0435442793,12.8226892 1.00028837,12.2669755 C1.95703245,11.7169909 3.17731084,12.0435443 3.73302447,13.0002884 C4.28300909,13.9570325 3.95645572,15.1773108 2.99971163,15.7330245 C2.03723854,16.2830091 0.816960157,15.9564557 0.266975533,14.9997116" id="Path"></path>
            <path d="M14.2669755,6.99971163 C13.7169909,6.04296755 14.0435443,4.82268916 15.0002884,4.26697553 C15.9570325,3.71699091 17.1773108,4.04354428 17.7330245,5.00028837 C18.2830091,5.95703245 17.9564557,7.17731084 16.9997116,7.73302447 C16.0429675,8.28300909 14.8169602,7.95645572 14.2669755,6.99971163" id="Path"></path>
            <path d="M9,20 C7.89398281,20 7,19.1060172 7,18 C7,16.8939828 7.89398281,16 9,16 C10.1060172,16 11,16.8939828 11,18 C11,19.1002865 10.1060172,20 9,20" id="Path"></path>
            <path d="M9,4 C7.89398281,4 7,3.10601719 7,2 C7,0.893982808 7.89398281,0 9,0 C10.1060172,0 11,0.893982808 11,2 C11,3.10601719 10.1060172,4 9,4" id="Path"></path>
        </g>
    </g>
</svg>