<?xml version="1.0" encoding="UTF-8"?>
<svg width="16px" height="16px" viewBox="0 0 16 16" version="1.1" xmlns="http://www.w3.org/2000/svg" xmlns:xlink="http://www.w3.org/1999/xlink">
    <!-- Generator: Sketch 53.2 (72643) - https://sketchapp.com -->
    <title>model</title>
    <desc>Created with Sketch.</desc>
    <g id="model" stroke="none" stroke-width="1" fill="none" fill-rule="evenodd">
        <path d="M1,2 L15,2 L15,14.9230769 L1,14.9230769 L1,2 Z M6.38461538,8.46153846 L6.38461538,10.6153846 L9.61538462,10.6153846 L9.61538462,8.46153846 L6.38461538,8.46153846 Z M9.61538462,7.38461538 L9.61538462,5.23076923 L6.38461538,5.23076923 L6.38461538,7.38461538 L9.61538462,7.38461538 Z M5.30769231,7.38461538 L5.30769231,5.23076923 L2.07692308,5.23076923 L2.07692308,7.38461538 L5.30769231,7.38461538 Z M2.07692308,8.46153846 L2.07692308,10.6153846 L5.30769231,10.6153846 L5.30769231,8.46153846 L2.07692308,8.46153846 Z M5.30769231,13.8461538 L5.30769231,11.6923077 L2.07692308,11.6923077 L2.07692308,13.8461538 L5.30769231,13.8461538 Z M9.61538462,13.8461538 L9.61538462,11.6923077 L6.38461538,11.6923077 L6.38461538,13.8461538 L9.61538462,13.8461538 Z M13.9230769,13.8461538 L13.9230769,11.6923077 L10.6923077,11.6923077 L10.6923077,13.8461538 L13.9230769,13.8461538 Z M13.9230769,10.6153846 L13.9230769,8.46153846 L10.6923077,8.46153846 L10.6923077,10.6153846 L13.9230769,10.6153846 Z M13.9230769,7.38461538 L13.9230769,5.23076923 L10.6923077,5.23076923 L10.6923077,7.38461538 L13.9230769,7.38461538 Z M2.07692308,4.15384615 L13.9230769,4.15384615 L13.9230769,3.07692308 L2.07692308,3.07692308 L2.07692308,4.15384615 Z" id="" fill="#989898" fill-rule="nonzero"></path>
    </g>
</svg>