<?xml version="1.0" encoding="UTF-8"?>
<svg width="24px" height="24px" viewBox="0 0 24 24" version="1.1" xmlns="http://www.w3.org/2000/svg" xmlns:xlink="http://www.w3.org/1999/xlink">
    <!-- Generator: Sketch 53.2 (72643) - https://sketchapp.com -->
    <title>netlify</title>
    <desc>Created with Sketch.</desc>
    <defs>
        <radialGradient cx="50%" cy="-50%" fx="50%" fy="-50%" r="100%" id="radialGradient-1">
            <stop stop-color="#20C6B7" offset="0%"></stop>
            <stop stop-color="#4D9ABF" offset="100%"></stop>
        </radialGradient>
    </defs>
    <g id="netlify" stroke="none" stroke-width="1" fill="none" fill-rule="evenodd">
        <g transform="translate(2.000000, 2.000000)" fill-rule="nonzero">
            <path d="M14.4946875,6.94056064 L14.4873438,6.93743565 C14.4828722,6.9361061 14.4787592,6.93378252 14.4753125,6.93063879 C14.4631748,6.91761203 14.4577768,6.89968621 14.4607031,6.88212329 L14.864375,4.41705128 L16.7572656,6.30837471 L14.7886719,7.14501326 C14.7832141,7.14721021 14.7773662,7.14827345 14.7714844,7.14813825 L14.7635938,7.14813825 C14.7597405,7.14562563 14.7562226,7.14263285 14.753125,7.13923202 C14.6798527,7.05776202 14.5922573,6.99042389 14.4946875,6.94056064 L14.4946875,6.94056064 Z M17.2403125,6.79032664 L19.2642187,8.81204037 C19.6845312,9.23242995 19.8950781,9.44211693 19.9717969,9.68524133 C19.9832812,9.72117874 19.9926562,9.75719427 20,9.79422543 L15.1630469,7.74798051 C15.1604543,7.74691007 15.15785,7.74586834 15.1552344,7.74485552 C15.1358594,7.73704304 15.1134375,7.72813681 15.1134375,7.70837123 C15.1134375,7.68852753 15.1364062,7.67915256 15.1557031,7.67134008 L15.1619531,7.66868383 L17.2403125,6.79032664 L17.2403125,6.79032664 Z M19.9175,10.4431301 C19.8130469,10.6392233 19.609375,10.8426603 19.2647656,11.1874251 L16.9828125,13.4663257 L14.0314844,12.852421 L14.0158594,12.849296 C13.9896875,12.8450772 13.9620312,12.8403897 13.9620312,12.8169523 C13.939331,12.571049 13.815437,12.3456462 13.62,12.1946882 C13.6079687,12.182657 13.6111719,12.163907 13.6147656,12.1466415 C13.6147656,12.1440633 13.6147656,12.1414852 13.6158594,12.1393759 L14.1709375,8.73539993 L14.1729687,8.72391559 C14.1760937,8.6978219 14.1807812,8.6675876 14.2042969,8.6675876 C14.4445371,8.63777861 14.6627694,8.5128174 14.8100781,8.32071346 C14.8147656,8.3154791 14.8178906,8.30977599 14.8241406,8.306651 C14.8408594,8.29883852 14.8607031,8.306651 14.8779687,8.31391661 L19.9170312,10.4431301 L19.9175,10.4431301 L19.9175,10.4431301 Z M16.458125,13.9905431 L12.7057031,17.7388151 L13.3478906,13.7954655 L13.3489844,13.7902311 C13.349474,13.7851063 13.3505219,13.7800503 13.3521094,13.775153 C13.3573437,13.7626531 13.3708594,13.7574187 13.3839844,13.7521844 L13.3902344,13.7495281 C13.5308594,13.6896064 13.6552344,13.5971847 13.7532031,13.4799194 C13.7657031,13.4653101 13.7808594,13.4511695 13.8001562,13.4485914 C13.8051562,13.4478101 13.8103125,13.4478101 13.8153125,13.4485914 L16.4575,13.99109 L16.4580469,13.9905431 L16.458125,13.9905431 Z M11.9114063,18.5321725 L11.4884375,18.9546714 L6.81234375,12.2040632 C6.81064905,12.20158 6.8089039,12.1991315 6.80710937,12.1967195 C6.79984375,12.1867976 6.79195312,12.1769539 6.79359375,12.1654695 C6.7940625,12.1571102 6.79929687,12.1498446 6.80507812,12.1435946 L6.81023437,12.1367977 C6.82429687,12.1158603 6.83640625,12.095001 6.84945312,12.0725791 L6.85984375,12.0543761 L6.86140625,12.0528136 C6.86875,12.0403136 6.87546875,12.0282824 6.88804687,12.0214855 C6.89898437,12.0162512 6.91421875,12.0183605 6.92617187,12.0209387 L12.1067188,13.0881235 C12.12125,13.0904672 12.1348438,13.0963266 12.1464063,13.105311 C12.1532031,13.1121859 12.1547656,13.1194515 12.1563281,13.1278109 C12.229669,13.4047583 12.4282588,13.6314986 12.693125,13.7407 C12.7077344,13.7479656 12.7014844,13.7641374 12.6946875,13.7813249 C12.6913051,13.7888831 12.6886879,13.7967609 12.686875,13.8048405 C12.6216406,14.2012457 12.061875,17.6115498 11.9114063,18.5321725 L11.9114063,18.5321725 Z M11.0278906,19.4142015 C10.7161719,19.722482 10.5323438,19.8856847 10.3245313,19.9514658 C10.1196232,20.0161781 9.89975176,20.0161781 9.69484375,19.9514658 C9.45148438,19.8742004 9.24101563,19.6645915 8.820625,19.2441238 L4.1246875,14.5533542 L5.35125,12.6531246 C5.356447,12.6435803 5.3635781,12.6352252 5.3721875,12.6285934 C5.38523438,12.6192184 5.4040625,12.6234372 5.4196875,12.6285934 C5.70122678,12.7134396 6.0034639,12.6981456 6.275,12.5853122 C6.2890625,12.580156 6.30320313,12.5764841 6.31421875,12.586406 C6.3196875,12.591406 6.32460938,12.5969528 6.32882813,12.6030466 L11.0278906,19.4147484 L11.0278906,19.4142015 L11.0278906,19.4142015 Z M3.67195312,14.1010897 L2.5946875,13.0250768 L4.72203125,12.1185165 C4.72747854,12.1161364 4.73335244,12.1148872 4.73929687,12.1148447 C4.75703125,12.1148447 4.7675,12.132579 4.776875,12.1487508 C4.79828125,12.1815633 4.8209375,12.2135944 4.84484375,12.2447662 L4.8515625,12.2530474 C4.8578125,12.2619537 4.85367187,12.2707818 4.84742187,12.2791411 L3.67242187,14.1010897 L3.67195312,14.1010897 L3.67195312,14.1010897 Z M2.11796875,12.548828 L0.755078125,11.1874251 C0.523203125,10.9558632 0.355078125,10.7878948 0.238125,10.6434421 L4.38210938,11.5020337 L4.39773438,11.5046118 C4.42335938,11.5087524 4.45164063,11.5134399 4.45164063,11.5374242 C4.45164063,11.5635179 4.42078125,11.5755491 4.39460938,11.5853929 L4.38265625,11.5906272 L2.11796875,12.548828 Z M0,9.94336568 C0.00474058189,9.85568653 0.0205428607,9.76895796 0.04703125,9.68524133 C0.124296875,9.44211693 0.33421875,9.23242995 0.755078125,8.81204037 L2.49914062,7.06985719 C3.30217456,8.23404096 4.1073843,9.3967224 4.91476563,10.5578954 C4.92882813,10.5766454 4.94445313,10.5975047 4.92835938,10.6131296 C4.85210938,10.6971138 4.77585938,10.7889105 4.72210938,10.8885977 C4.71625,10.9013321 4.70726563,10.9125039 4.6959375,10.9208633 C4.68914063,10.925082 4.681875,10.9235195 4.6740625,10.921957 L4.67296875,10.921957 L0,9.94289694 L0,9.94344381 L0,9.94336568 Z M2.96601562,6.60353023 L5.31109375,4.26103604 C5.53140625,4.35752018 6.33351562,4.69603496 7.0509375,4.99853421 C7.5940625,5.22814302 8.0890625,5.43681438 8.2446875,5.50454858 C8.2603125,5.51079857 8.27445312,5.51704855 8.28125,5.53267351 C8.28539062,5.54204849 8.28335937,5.55407971 8.28125,5.56400156 C8.20585358,5.90755505 8.30852108,6.26598004 8.554375,6.51751482 C8.57,6.53313978 8.554375,6.5555616 8.54078125,6.57485842 L8.5334375,6.5857959 L6.15234375,10.2699274 C6.14609375,10.2803961 6.1403125,10.2892242 6.12984375,10.2960211 C6.11734375,10.3038335 6.09960937,10.3001617 6.08492187,10.2965679 C5.99231541,10.2723345 5.8971207,10.2593761 5.80140625,10.2579743 C5.71578125,10.2579743 5.6228125,10.2735992 5.52882812,10.2907867 L5.52828125,10.2907867 C5.51789062,10.2923492 5.5084375,10.2944586 5.50015625,10.2882086 C5.49092734,10.2806901 5.48298479,10.2717185 5.47664062,10.2616461 L2.96601562,6.60353023 Z M5.78476563,3.78791222 L8.82070313,0.755341625 C9.24101563,0.335420793 9.45148438,0.125265065 9.69476563,0.0485465053 C9.89969776,-0.0161821684 10.1195991,-0.0161821684 10.3245312,0.0485465053 C10.5678906,0.125265065 10.7782812,0.335420793 11.1986719,0.755341625 L11.8566406,1.41260562 L9.69742187,4.75290982 C9.69207582,4.76262254 9.68478949,4.7711321 9.67601562,4.77790976 C9.66296875,4.78681599 9.6446875,4.78314412 9.62898437,4.77790976 C9.28339672,4.67315199 8.90838407,4.74536067 8.62640625,4.97095616 C8.61234375,4.9855655 8.59140625,4.97720614 8.57367188,4.96939366 C8.29164063,4.84681584 6.09851563,3.92095876 5.7846875,3.78799034 L5.78476563,3.78791222 Z M12.3150781,1.87057323 L14.3088281,3.86197454 L13.8283594,6.83415466 L13.8283594,6.84196714 C13.8279449,6.84874698 13.8265502,6.85543099 13.8242187,6.86181084 C13.8189844,6.87220144 13.8085156,6.87431081 13.7980469,6.8774358 C13.6953666,6.90852092 13.598651,6.95666733 13.5119531,7.01985732 C13.5082188,7.02249691 13.5047165,7.02545032 13.5014844,7.02868542 C13.4957031,7.03493541 13.49,7.04071664 13.480625,7.04173226 C13.4729586,7.04196725 13.4653189,7.0407205 13.458125,7.0380604 L10.4200781,5.7486886 L10.414375,5.74603236 C10.395,5.73821988 10.3720312,5.7288449 10.3720312,5.7090012 C10.3541678,5.53986976 10.2988717,5.37683727 10.2101562,5.23173676 C10.1955469,5.20775244 10.179375,5.18275251 10.191875,5.15822132 L12.3150781,1.87057323 L12.3150781,1.87057323 Z M10.261875,6.35939021 L13.1098437,7.56430909 C13.1254687,7.5715747 13.1427344,7.57837156 13.1495312,7.59454339 C13.1522405,7.60425377 13.1522405,7.61452044 13.1495312,7.62423082 C13.1411719,7.66602759 13.1339062,7.71344935 13.1339062,7.7614961 L13.1339062,7.84126153 C13.1339062,7.86110523 13.1135156,7.86938646 13.0946875,7.87719894 L13.0889844,7.87930831 C12.6378125,8.07180783 6.75492187,10.5775829 6.74601562,10.5775829 C6.7371875,10.5775829 6.72773437,10.5775829 6.71890625,10.5687548 C6.70328125,10.5531298 6.71890625,10.5312548 6.73296875,10.511333 L6.7403125,10.5009424 L9.08070312,6.88102954 L9.08484375,6.87477955 C9.0984375,6.85282648 9.11414062,6.82829529 9.13921875,6.82829529 L9.16265625,6.83196716 C9.2159375,6.83923277 9.26296875,6.84602963 9.31046875,6.84602963 C9.66554687,6.84602963 9.99453125,6.6733738 10.1929687,6.37814016 C10.1976562,6.37032768 10.2036719,6.36329645 10.2107031,6.35728084 C10.2247656,6.34689024 10.2457031,6.3521246 10.261875,6.35939021 L10.261875,6.35939021 Z M7.0003125,11.1503158 L13.4127344,8.41868197 C13.4127344,8.41868197 13.4221094,8.41868197 13.4310156,8.4275882 C13.4659375,8.46250999 13.4957031,8.48594743 13.5244531,8.5079005 L13.5385156,8.5167286 C13.5516406,8.52407233 13.5646875,8.53235356 13.5657031,8.54594728 C13.5657031,8.55118164 13.5657031,8.55430663 13.5646875,8.55899412 L13.0153125,11.9296108 L13.0132031,11.9432045 C13.0096094,11.96922 13.0059375,11.9989856 12.9814062,11.9989856 C12.6841762,12.0189689 12.4159287,12.1842665 12.2644531,12.4407814 L12.2617969,12.444922 C12.2545312,12.4569532 12.2477344,12.4683594 12.2357031,12.4746094 C12.2247656,12.4799219 12.2107031,12.4778125 12.1991406,12.4752344 L7.08546875,11.4215651 C7.08023438,11.4205495 7.00609375,11.1508627 7.0003125,11.1503158 L7.0003125,11.1503158 Z" id="Shape" fill="url(#radialGradient-1)"></path>
            <rect id="Rectangle" fill-opacity="0" fill="#000000" x="0" y="0" width="20" height="20"></rect>
        </g>
    </g>
</svg>