<?xml version="1.0" encoding="UTF-8"?>
<svg width="24px" height="24px" viewBox="0 0 24 24" version="1.1" xmlns="http://www.w3.org/2000/svg" xmlns:xlink="http://www.w3.org/1999/xlink">
    <!-- Generator: Sketch 53.2 (72643) - https://sketchapp.com -->
    <title>page</title>
    <desc>Created with Sketch.</desc>
    <g id="page" stroke="none" stroke-width="1" fill="none" fill-rule="evenodd">
        <path d="M4.5,20.75 L7,20.75 L7,22 L3.25,22 L3.25,2 L14.1386719,2 L19.1386719,7 L19.5,7 L19.5,14.5 L18.25,14.5 L18.25,8.25 L13.25,8.25 L13.25,3.25 L4.5,3.25 L4.5,20.75 Z M17.3613281,7 L14.5,4.13867188 L14.5,7 L17.3613281,7 Z M10.5644531,16.8144531 L8.50390625,18.875 L10.5644531,20.9355469 L9.68554688,21.8144531 L6.74609375,18.875 L9.68554688,15.9355469 L10.5644531,16.8144531 Z M13.875,17 C14.135418,17 14.3795562,17.0488276 14.6074219,17.1464844 C14.8352876,17.2441411 15.0338533,17.3776033 15.203125,17.546875 C15.3723967,17.7161467 15.5058589,17.9147124 15.6035156,18.1425781 C15.7011724,18.3704438 15.75,18.614582 15.75,18.875 C15.75,19.135418 15.7011724,19.3795562 15.6035156,19.6074219 C15.5058589,19.8352876 15.3723967,20.0338533 15.203125,20.203125 C15.0338533,20.3723967 14.8352876,20.5058589 14.6074219,20.6035156 C14.3795562,20.7011724 14.135418,20.75 13.875,20.75 C13.614582,20.75 13.3704438,20.7011724 13.1425781,20.6035156 C12.9147124,20.5058589 12.7161467,20.3723967 12.546875,20.203125 C12.3776033,20.0338533 12.2441411,19.8352876 12.1464844,19.6074219 C12.0488276,19.3795562 12,19.135418 12,18.875 C12,18.614582 12.0488276,18.3704438 12.1464844,18.1425781 C12.2441411,17.9147124 12.3776033,17.7161467 12.546875,17.546875 C12.7161467,17.3776033 12.9147124,17.2441411 13.1425781,17.1464844 C13.3704438,17.0488276 13.614582,17 13.875,17 Z M21.0039062,18.875 L18.0644531,21.8144531 L17.1855469,20.9355469 L19.2460938,18.875 L17.1855469,16.8144531 L18.0644531,15.9355469 L21.0039062,18.875 Z" id="x" fill="#989898" fill-rule="nonzero"></path>
    </g>
</svg>