<?xml version="1.0" encoding="UTF-8"?>
<svg width="25px" height="24px" viewBox="0 0 25 24" version="1.1" xmlns="http://www.w3.org/2000/svg" xmlns:xlink="http://www.w3.org/1999/xlink">
    <!-- Generator: Sketch 53.2 (72643) - https://sketchapp.com -->
    <title>pages</title>
    <desc>Created with Sketch.</desc>
    <g id="pages" stroke="none" stroke-width="1" fill="none" fill-rule="evenodd" transform="translate(0.000000, 0.000000)">
        <path d="M12,2 C12.9179733,2 13.8033812,2.11881392 14.65625,2.35644531 C15.5091188,2.59407671 16.3066369,2.92935981 17.0488281,3.36230469 C17.7910193,3.79524956 18.4664683,4.31607769 19.0751953,4.92480469 C19.6839223,5.53353169 20.2047504,6.20898066 20.6376953,6.95117188 C21.0706402,7.69336309 21.4059233,8.49088115 21.6435547,9.34375 C21.8811861,10.1966188 22,11.0820267 22,12 C22,12.9179733 21.8811861,13.8033812 21.6435547,14.65625 C21.4059233,15.5091188 21.0706402,16.3066369 20.6376953,17.0488281 C20.2047504,17.7910193 19.6839223,18.4664683 19.0751953,19.0751953 C18.4664683,19.6839223 17.7910193,20.2047504 17.0488281,20.6376953 C16.3066369,21.0706402 15.5091188,21.4059233 14.65625,21.6435547 C13.8033812,21.8811861 12.9179733,22 12,22 C11.0820267,22 10.1966188,21.8811861 9.34375,21.6435547 C8.49088115,21.4059233 7.69336309,21.0706402 6.95117188,20.6376953 C6.20898066,20.2047504 5.53353169,19.6839223 4.92480469,19.0751953 C4.31607769,18.4664683 3.79524956,17.7910193 3.36230469,17.0488281 C2.92935981,16.3066369 2.59407671,15.5107464 2.35644531,14.6611328 C2.11881392,13.8115192 2,12.9244838 2,12 C2,11.0820267 2.11881392,10.1966188 2.35644531,9.34375 C2.59407671,8.49088115 2.92935981,7.69336309 3.36230469,6.95117188 C3.79524956,6.20898066 4.31607769,5.53353169 4.92480469,4.92480469 C5.53353169,4.31607769 6.20898066,3.79524956 6.95117188,3.36230469 C7.69336309,2.92935981 8.48925356,2.59407671 9.33886719,2.35644531 C10.1884808,2.11881392 11.0755162,2 12,2 Z M19.9003906,8.25 C19.6529936,7.72265361 19.3535174,7.22623931 19.0019531,6.76074219 C18.6503889,6.29524507 18.2597678,5.87044463 17.8300781,5.48632812 C17.4003885,5.10221162 16.9348983,4.76041816 16.4335938,4.4609375 C15.9322892,4.16145684 15.4082059,3.91731865 14.8613281,3.72851562 C15.0957043,4.05403809 15.3072907,4.39908672 15.4960938,4.76367188 C15.6848968,5.12825703 15.8525383,5.50422983 15.9990234,5.89160156 C16.1455085,6.27897329 16.2708328,6.67122197 16.375,7.06835938 C16.4791672,7.46549678 16.5703121,7.85937305 16.6484375,8.25 L19.9003906,8.25 Z M20.75,12 C20.75,11.1341103 20.6295585,10.3007853 20.3886719,9.5 L16.84375,9.5 C16.8958336,9.91666875 16.9348957,10.3317037 16.9609375,10.7451172 C16.9869793,11.1585307 17,11.5768208 17,12 C17,12.4231792 16.9869793,12.8414693 16.9609375,13.2548828 C16.9348957,13.6682963 16.8958336,14.0833313 16.84375,14.5 L20.3886719,14.5 C20.6295585,13.6992147 20.75,12.8658897 20.75,12 Z M12,20.75 C12.319012,20.75 12.6168606,20.6621103 12.8935547,20.4863281 C13.1702488,20.310546 13.4257801,20.0794285 13.6601562,19.7929688 C13.8945324,19.506509 14.1044913,19.182619 14.2900391,18.8212891 C14.4755869,18.4599591 14.6399732,18.0937519 14.7832031,17.7226562 C14.926433,17.3515606 15.0468745,16.9934913 15.1445312,16.6484375 C15.242188,16.3033837 15.317057,16.0039075 15.3691406,15.75 L8.63085938,15.75 C8.68294297,16.0039075 8.75781201,16.3033837 8.85546875,16.6484375 C8.95312549,16.9934913 9.07356699,17.3515606 9.21679688,17.7226562 C9.36002676,18.0937519 9.52441313,18.4599591 9.70996094,18.8212891 C9.89550874,19.182619 10.1054676,19.506509 10.3398438,19.7929688 C10.5742199,20.0794285 10.8297512,20.310546 11.1064453,20.4863281 C11.3831394,20.6621103 11.680988,20.75 12,20.75 Z M15.5839844,14.5 C15.636068,14.0833313 15.6767577,13.6682963 15.7060547,13.2548828 C15.7353517,12.8414693 15.75,12.4231792 15.75,12 C15.75,11.5768208 15.7353517,11.1585307 15.7060547,10.7451172 C15.6767577,10.3317037 15.636068,9.91666875 15.5839844,9.5 L8.41601562,9.5 C8.36393203,9.91666875 8.32324233,10.3317037 8.29394531,10.7451172 C8.26464829,11.1585307 8.25,11.5768208 8.25,12 C8.25,12.4231792 8.26464829,12.8414693 8.29394531,13.2548828 C8.32324233,13.6682963 8.36393203,14.0833313 8.41601562,14.5 L15.5839844,14.5 Z M3.25,12 C3.25,12.8658897 3.3704415,13.6992147 3.61132812,14.5 L7.15625,14.5 C7.10416641,14.0833313 7.0651043,13.6682963 7.0390625,13.2548828 C7.0130207,12.8414693 7,12.4231792 7,12 C7,11.5768208 7.0130207,11.1585307 7.0390625,10.7451172 C7.0651043,10.3317037 7.10416641,9.91666875 7.15625,9.5 L3.61132812,9.5 C3.3704415,10.3007853 3.25,11.1341103 3.25,12 Z M12,3.25 C11.680988,3.25 11.3831394,3.33788975 11.1064453,3.51367188 C10.8297512,3.689454 10.5742199,3.92057148 10.3398438,4.20703125 C10.1054676,4.49349102 9.89550874,4.81738101 9.70996094,5.17871094 C9.52441313,5.54004087 9.36002676,5.90624814 9.21679688,6.27734375 C9.07356699,6.64843936 8.95312549,7.00650869 8.85546875,7.3515625 C8.75781201,7.69661631 8.68294297,7.99609248 8.63085938,8.25 L15.3691406,8.25 C15.317057,7.99609248 15.242188,7.69661631 15.1445312,7.3515625 C15.0468745,7.00650869 14.926433,6.64843936 14.7832031,6.27734375 C14.6399732,5.90624814 14.4755869,5.54004087 14.2900391,5.17871094 C14.1044913,4.81738101 13.8945324,4.49349102 13.6601562,4.20703125 C13.4257801,3.92057148 13.1702488,3.689454 12.8935547,3.51367188 C12.6168606,3.33788975 12.319012,3.25 12,3.25 Z M9.13867188,3.72851562 C8.59179414,3.91731865 8.06771084,4.16145684 7.56640625,4.4609375 C7.06510166,4.76041816 6.59961152,5.10221162 6.16992188,5.48632812 C5.74023223,5.87044463 5.34961113,6.29524507 4.99804688,6.76074219 C4.64648262,7.22623931 4.34700645,7.72265361 4.09960938,8.25 L7.3515625,8.25 C7.42968789,7.85937305 7.52083281,7.46549678 7.625,7.06835938 C7.72916719,6.67122197 7.85449146,6.27897329 8.00097656,5.89160156 C8.14746167,5.50422983 8.31510322,5.12825703 8.50390625,4.76367188 C8.69270928,4.39908672 8.9042957,4.05403809 9.13867188,3.72851562 Z M4.09960938,15.75 C4.34700645,16.2773464 4.64648262,16.7737607 4.99804688,17.2392578 C5.34961113,17.7047549 5.74023223,18.1295554 6.16992188,18.5136719 C6.59961152,18.8977884 7.06510166,19.2395818 7.56640625,19.5390625 C8.06771084,19.8385432 8.59179414,20.0826813 9.13867188,20.2714844 C8.9042957,19.9459619 8.69270928,19.6009133 8.50390625,19.2363281 C8.31510322,18.871743 8.14746167,18.4957702 8.00097656,18.1083984 C7.85449146,17.7210267 7.72916719,17.328778 7.625,16.9316406 C7.52083281,16.5345032 7.42968789,16.140627 7.3515625,15.75 L4.09960938,15.75 Z M14.8613281,20.2714844 C15.4082059,20.0826813 15.9322892,19.8385432 16.4335938,19.5390625 C16.9348983,19.2395818 17.4003885,18.8977884 17.8300781,18.5136719 C18.2597678,18.1295554 18.6503889,17.7047549 19.0019531,17.2392578 C19.3535174,16.7737607 19.6529936,16.2773464 19.9003906,15.75 L16.6484375,15.75 C16.5703121,16.140627 16.4791672,16.5345032 16.375,16.9316406 C16.2708328,17.328778 16.1455085,17.7210267 15.9990234,18.1083984 C15.8525383,18.4957702 15.6848968,18.871743 15.4960938,19.2363281 C15.3072907,19.6009133 15.0957043,19.9459619 14.8613281,20.2714844 Z" id="x" fill="#989898" fill-rule="nonzero"></path>
    </g>
</svg>