<?xml version="1.0" encoding="UTF-8"?>
<svg width="24px" height="24px" viewBox="0 0 24 24" version="1.1" xmlns="http://www.w3.org/2000/svg" xmlns:xlink="http://www.w3.org/1999/xlink">
    <title>page_private</title>
    <g id="page_private" stroke="none" stroke-width="1" fill="none" fill-rule="evenodd">
        <g id="Group" transform="translate(4.000000, 1.000000)" fill="#989898" fill-rule="nonzero">
            <path d="M15,22 L15,15.75 L13.75,15.75 L13.75,14.5 C13.75,14.1549479 13.6848958,13.8310547 13.5546875,13.5283203 C13.4244792,13.2255859 13.2454427,12.9602865 13.0175781,12.7324219 C12.7897135,12.5045573 12.5244141,12.3255208 12.2216797,12.1953125 C11.9189453,12.0651042 11.5950521,12 11.25,12 C10.9049479,12 10.5810547,12.0651042 10.2783203,12.1953125 C9.97558594,12.3255208 9.71028646,12.5045573 9.48242188,12.7324219 C9.25455729,12.9602865 9.07552083,13.2255859 8.9453125,13.5283203 C8.81510417,13.8310547 8.75,14.1549479 8.75,14.5 L8.75,14.5 L8.75,15.75 L7.5,15.75 L7.5,22 L15,22 Z M12.5,15.75 L10,15.75 L10,14.5 C10,14.3242188 10.0325521,14.1614583 10.0976562,14.0117188 C10.1627604,13.8619792 10.2522786,13.7301432 10.3662109,13.6162109 C10.4801432,13.5022786 10.6119792,13.4127604 10.7617188,13.3476562 C10.9114583,13.2825521 11.0742188,13.25 11.25,13.25 C11.4257812,13.25 11.5885417,13.2825521 11.7382812,13.3476562 C11.8880208,13.4127604 12.0198568,13.5022786 12.1337891,13.6162109 C12.2477214,13.7301432 12.3372396,13.8619792 12.4023438,14.0117188 C12.4674479,14.1614583 12.5,14.3242188 12.5,14.5 L12.5,14.5 L12.5,15.75 Z M13.75,20.75 L8.75,20.75 L8.75,17 L13.75,17 L13.75,20.75 Z" id=""></path>
            <path d="M3.75,20 L3.75,18.75 L1.25,18.75 L1.25,1.25 L10,1.25 L10,6.25 L15,6.25 L15,12.5 L16.25,12.5 L16.25,5 L15.8886719,5 L10.8886719,0 L0,0 L0,20 L3.75,20 Z M14.1113281,5 L11.25,5 L11.25,2.13867188 L14.1113281,5 Z" id=""></path>
        </g>
    </g>
</svg>