<?xml version="1.0" encoding="UTF-8"?>
<svg width="24px" height="24px" viewBox="0 0 24 24" version="1.1" xmlns="http://www.w3.org/2000/svg" xmlns:xlink="http://www.w3.org/1999/xlink">
    <!-- Generator: Sketch 53.2 (72643) - https://sketchapp.com -->
    <title>prisma</title>
    <desc>Created with Sketch.</desc>
    <g id="prisma" stroke="none" stroke-width="1" fill="none" fill-rule="evenodd">
        <g id="prisma-logo" transform="translate(4.000000, 3.000000)" fill="#989898">
            <path d="M14.6274838,14.4294724 L5.81204215,16.874004 C5.54272787,16.948778 5.28460946,16.7303519 5.34120227,16.4755454 L8.49046163,2.33489311 C8.54935495,2.07030851 8.93921651,2.02846388 9.06221768,2.27334843 L14.8932706,13.8827169 C15.0032355,14.101862 14.8777804,14.3601627 14.6274838,14.4294724 Z M15.8952974,14.4753189 L9.25049078,0.599339929 L9.25049078,0.599043056 C9.08384872,0.252147329 8.736074,0.0232586408 8.3419595,0.0018837781 C7.93758082,-0.0212722613 7.57531548,0.170507342 7.37093746,0.496918854 L0.164267829,11.9755025 C-0.0589778825,12.3333826 -0.0546005097,12.7745354 0.176947116,13.1278138 L3.69968016,18.4942774 C3.90949216,18.814603 4.27341788,19 4.65153233,19 C4.75870249,19 4.86647643,18.9850079 4.97243904,18.9541332 L15.1979367,15.9800627 C15.5111452,15.8890712 15.767297,15.6710182 15.9013352,15.3823095 C16.0349205,15.0931555 16.0328073,14.7625433 15.8952974,14.4753189 Z" id="Shape"></path>
        </g>
    </g>
</svg>