<?xml version="1.0" encoding="UTF-8"?>
<svg width="24px" height="24px" viewBox="0 0 24 24" version="1.1" xmlns="http://www.w3.org/2000/svg" xmlns:xlink="http://www.w3.org/1999/xlink">
    <!-- Generator: Sketch 53.2 (72643) - https://sketchapp.com -->
    <title>react_grey</title>
    <desc>Created with Sketch.</desc>
    <g id="react_grey" stroke="none" stroke-width="1" fill="none" fill-rule="evenodd">
        <g id="React-icon" transform="translate(2.000000, 2.000000)" fill="#989898" fill-rule="nonzero">
            <path d="M20,9.50217441 C20,8.08880751 18.3408072,6.74937057 15.7969833,5.91874571 C16.3840196,3.1528954 16.1231146,0.952391852 14.9735018,0.247882811 C14.7085202,0.0826276036 14.3986955,0.00434882124 14.0603343,0.00434882124 L14.0603343,0.974135958 C14.2478598,0.974135958 14.3986955,1.01327535 14.5250713,1.08720531 C15.0794945,1.42641337 15.3200163,2.71801328 15.1324908,4.37926299 C15.0876478,4.78805219 15.0142682,5.21858549 14.9245821,5.65781643 C14.1255605,5.44907301 13.2531594,5.28816663 12.3359152,5.18379492 C11.7855687,4.37926299 11.214839,3.64866102 10.6400326,3.0093843 C11.9690175,1.69169146 13.2164696,0.969787137 14.0644109,0.969787137 L14.0644109,0 C14.0644109,0 14.0644109,0 14.0644109,0 C12.9433347,0 11.475744,0.852368963 9.99184672,2.33096818 C8.50794945,0.861066606 7.04035874,0.017395285 5.91928251,0.017395285 L5.91928251,0.987182422 C6.76314717,0.987182422 8.01467591,1.70473793 9.34366082,3.01373312 C8.7729311,3.65300984 8.20220139,4.37926299 7.66000815,5.18379492 C6.73868732,5.28816663 5.86628618,5.44907301 5.06726457,5.66216526 C4.97350183,5.22728313 4.90419894,4.80544747 4.85527925,4.4010071 C4.66367713,2.73975738 4.9001223,1.44815747 5.45046881,1.1046006 C5.57276804,1.02632181 5.73175703,0.991531243 5.91928251,0.991531243 L5.91928251,0.0217441062 C5.91928251,0.0217441062 5.91928251,0.0217441062 5.91928251,0.0217441062 C5.57684468,0.0217441062 5.26701998,0.100022889 4.99796168,0.265278096 C3.8524256,0.969787137 3.59559723,3.16594186 4.18671015,5.92309453 C1.65103954,6.75806821 0,8.09315633 0,9.50217441 C0,10.9155413 1.65919283,12.2549783 4.20301671,13.0856031 C3.61598043,15.8514534 3.87688545,18.051957 5.02649817,18.756466 C5.29147982,18.9217212 5.60130453,19 5.94374236,19 C7.06481859,19 8.53240929,18.147631 10.0163066,16.6690318 C11.5002038,18.1389334 12.9677945,18.9826047 14.0888708,18.9826047 C14.4313086,18.9826047 14.7411333,18.9043259 15.0101916,18.7390707 C16.1557277,18.0345617 16.4125561,15.838407 15.8214431,13.0812543 C18.3489605,12.2506294 20,10.9111925 20,9.50217441 Z M14.6922136,6.60151064 C14.5413779,7.16250858 14.3538524,7.74090181 14.1418671,8.31929503 C13.9747248,7.97138933 13.7994293,7.62348363 13.6078272,7.27557794 C13.4203017,6.92767224 13.2205463,6.58846418 13.0207909,6.25795377 C13.5996739,6.34927901 14.1581737,6.46234836 14.6922136,6.60151064 Z M12.8251121,11.2330053 C12.5071341,11.8200961 12.1810029,12.3767453 11.8426417,12.894255 C11.2352222,12.9507897 10.6196494,12.9812314 10,12.9812314 C9.38442723,12.9812314 8.76885446,12.9507897 8.16551162,12.8986038 C7.82715043,12.3810941 7.49694252,11.8287938 7.17896453,11.2460517 C6.86913983,10.6763561 6.58785161,10.0979629 6.33102324,9.51522087 C6.58377497,8.93247883 6.86913983,8.34973678 7.17488789,7.7800412 C7.49286588,7.19295033 7.81899715,6.63630121 8.15735834,6.11879149 C8.76477782,6.06225681 9.38035059,6.03181506 10,6.03181506 C10.6155728,6.03181506 11.2311455,6.06225681 11.8344884,6.11444266 C12.1728496,6.63195239 12.5030575,7.18425269 12.8210355,7.76699474 C13.1308602,8.33669032 13.4121484,8.91508354 13.6689768,9.49782559 C13.4121484,10.0805676 13.1308602,10.6633097 12.8251121,11.2330053 Z M14.1418671,10.6676585 C14.3620057,11.2504005 14.5495312,11.8331426 14.7044435,12.3984894 C14.1704036,12.5376516 13.6078272,12.6550698 13.0248675,12.7463951 C13.2246229,12.4115358 13.4243783,12.0679789 13.6119038,11.7157244 C13.7994293,11.3678187 13.9747248,11.0155642 14.1418671,10.6676585 Z M10.0081533,15.3078508 C9.62902568,14.8903639 9.24989808,14.4250401 8.87484713,13.916228 C9.2417448,13.9336233 9.61679576,13.9466697 9.99592336,13.9466697 C10.3791276,13.9466697 10.7582552,13.9379721 11.1292295,13.916228 C10.7623318,14.4250401 10.3832042,14.8903639 10.0081533,15.3078508 Z M6.97513249,12.7463951 C6.39624949,12.6550698 5.83774969,12.5420005 5.30370974,12.4028382 C5.45454545,11.8418402 5.64207093,11.263447 5.85405626,10.6850538 C6.02119853,11.0329595 6.19649409,11.3808652 6.38809621,11.7287709 C6.57969833,12.0766766 6.77537709,12.4158846 6.97513249,12.7463951 Z M9.98777008,3.69649805 C10.3668977,4.11398489 10.7460253,4.57930877 11.1210762,5.08812085 C10.7541786,5.07072557 10.3791276,5.0576791 10,5.0576791 C9.61679576,5.0576791 9.23766816,5.06637675 8.86669384,5.08812085 C9.23359152,4.57930877 9.61271912,4.11398489 9.98777008,3.69649805 Z M6.97105585,6.25795377 C6.77130045,6.592813 6.57154505,6.93636988 6.38401957,7.2886244 C6.19649409,7.6365301 6.02119853,7.9844358 5.85405626,8.3323415 C5.63391765,7.74959945 5.44639217,7.1668574 5.29147982,6.60151064 C5.82551977,6.46669718 6.38809621,6.34927901 6.97105585,6.25795377 Z M3.28169588,11.702678 C1.83856502,11.046006 0.905014268,10.1849393 0.905014268,9.50217441 C0.905014268,8.81940948 1.83856502,7.95399405 3.28169588,7.30167086 C3.632287,7.14076448 4.01549124,6.99725338 4.4109254,6.86243992 C4.64329393,7.71480888 4.94904199,8.60196841 5.32816959,9.51087205 C4.95311863,10.4154269 4.65144721,11.2982376 4.42315532,12.1462577 C4.01956788,12.0114443 3.63636364,11.8635843 3.28169588,11.702678 Z M5.47492866,17.9171435 C4.9205055,17.5779355 4.67998369,16.2863355 4.86750917,14.6250858 C4.91235222,14.2162966 4.98573176,13.7857633 5.07541786,13.3465324 C5.87443946,13.5552758 6.7468406,13.7161822 7.66408479,13.8205539 C8.21443131,14.6250858 8.78516103,15.3556878 9.35996739,15.9949645 C8.03098247,17.3126574 6.78353037,18.0345617 5.93558907,18.0345617 C5.75214024,18.0302129 5.59722788,17.9910735 5.47492866,17.9171435 Z M15.1447208,14.6033417 C15.3363229,16.2645914 15.0998777,17.5561913 14.5495312,17.8997482 C14.427232,17.978027 14.268243,18.0128176 14.0807175,18.0128176 C13.2368528,18.0128176 11.9853241,17.2952621 10.6563392,15.9862669 C11.2270689,15.3469902 11.7977986,14.620737 12.3399918,13.8162051 C13.2613127,13.7118334 14.1337138,13.550927 14.9327354,13.3378347 C15.0264982,13.7770657 15.0998777,14.1989014 15.1447208,14.6033417 Z M16.7142275,11.702678 C16.3636364,11.8635843 15.9804321,12.0070954 15.584998,12.1419089 C15.3526294,11.2895399 15.0468814,10.4023804 14.6677538,9.49347677 C15.0428047,8.58892195 15.3444762,7.70611124 15.572768,6.8580911 C15.9763555,6.99290455 16.3595597,7.14076448 16.7183041,7.30167086 C18.161435,7.95834287 19.0949857,8.81940948 19.0949857,9.50217441 C19.0909091,10.1849393 18.1573583,11.0503548 16.7142275,11.702678 Z" id="Shape"></path>
            <circle id="Oval" cx="10.5" cy="9.5" r="1.5"></circle>
        </g>
    </g>
</svg>