<?xml version="1.0" encoding="UTF-8"?>
<svg width="24px" height="24px" viewBox="0 0 24 24" version="1.1" xmlns="http://www.w3.org/2000/svg" xmlns:xlink="http://www.w3.org/1999/xlink">
    <!-- Generator: Sketch 53.2 (72643) - https://sketchapp.com -->
    <title>refresh</title>
    <desc>Created with Sketch.</desc>
    <g id="refresh" stroke="none" stroke-width="1" fill="none" fill-rule="evenodd">
        <path d="M18.7692308,5.23076923 L20,5.23076923 L20,10.1538462 L15.0769231,10.1538462 L15.0769231,8.92307692 L17.9807692,8.92307692 C17.7051268,8.36538183 17.360579,7.86057918 16.9471154,7.40865385 C16.5336518,6.95672851 16.0689128,6.56891187 15.5528846,6.24519231 C15.0368564,5.92147274 14.4839773,5.67147524 13.8942308,5.49519231 C13.3044842,5.31890938 12.6987211,5.23076923 12.0769231,5.23076923 C11.2692267,5.23076923 10.4984011,5.37019091 9.76442308,5.64903846 C9.03044505,5.92788601 8.37340034,6.3141001 7.79326923,6.80769231 C7.21313813,7.30128452 6.72436096,7.88781712 6.32692308,8.56730769 C5.92948519,9.24679827 5.66346221,9.98397038 5.52884615,10.7788462 L4.31730769,10.5769231 C4.4775649,9.63461067 4.79166433,8.76122197 5.25961538,7.95673077 C5.72756644,7.15223957 6.3060863,6.4567337 6.99519231,5.87019231 C7.68429832,5.28365091 8.46313668,4.82532216 9.33173077,4.49519231 C10.2003249,4.16506245 11.1153798,4 12.0769231,4 C12.7564137,4 13.4198686,4.08814014 14.0673077,4.26442308 C14.7147468,4.44070601 15.3285227,4.69390861 15.9086538,5.02403846 C16.488785,5.35416832 17.0224335,5.75160024 17.5096154,6.21634615 C17.9967973,6.68109207 18.4166649,7.20192019 18.7692308,7.77884615 L18.7692308,5.23076923 Z M11.9230769,18.7692308 C12.7307733,18.7692308 13.5015989,18.6298091 14.2355769,18.3509615 C14.969555,18.072114 15.6265997,17.6858999 16.2067308,17.1923077 C16.7868619,16.6987155 17.275639,16.1137854 17.6730769,15.4375 C18.0705148,14.7612146 18.3365378,14.0224399 18.4711538,13.2211538 L19.6826923,13.4230769 C19.5224351,14.3653893 19.2083357,15.238778 18.7403846,16.0432692 C18.2724336,16.8477604 17.6939137,17.5432663 17.0048077,18.1298077 C16.3157017,18.7163491 15.5368633,19.1746778 14.6682692,19.5048077 C13.7996751,19.8349375 12.8846202,20 11.9230769,20 C11.2435863,20 10.5801314,19.9118599 9.93269231,19.7355769 C9.28525317,19.559294 8.67147726,19.3060914 8.09134615,18.9759615 C7.51121505,18.6458317 6.97756654,18.2483998 6.49038462,17.7836538 C6.00320269,17.3189079 5.5833351,16.7980798 5.23076923,16.2211538 L5.23076923,18.7692308 L4,18.7692308 L4,13.8461538 L8.92307692,13.8461538 L8.92307692,15.0769231 L6.00961538,15.0769231 C6.28525779,15.6346182 6.63140817,16.1394208 7.04807692,16.5913462 C7.46474567,17.0432715 7.93108716,17.4310881 8.44711538,17.7548077 C8.96314361,18.0785273 9.51602269,18.3285248 10.1057692,18.5048077 C10.6955158,18.6810906 11.3012789,18.7692308 11.9230769,18.7692308 Z" id="x" fill="#989898" fill-rule="nonzero"></path>
    </g>
</svg>