<?xml version="1.0" encoding="UTF-8"?>
<svg width="24px" height="24px" viewBox="0 0 24 24" version="1.1" xmlns="http://www.w3.org/2000/svg" xmlns:xlink="http://www.w3.org/1999/xlink">
    <!-- Generator: Sketch 53.2 (72643) - https://sketchapp.com -->
    <title>rw_cli</title>
    <desc>Created with Sketch.</desc>
    <g id="rw_cli" stroke="none" stroke-width="1" fill="none" fill-rule="evenodd">
        <path d="M23,2.5 L23,20.5 L1,20.5 L1,2.5 L23,2.5 Z M2,3.5 L2,5.5 L22,5.5 L22,3.5 L2,3.5 Z M22,19.5 L22,6.5 L2,6.5 L2,19.5 L22,19.5 Z" id="î–" fill="#989898" fill-rule="nonzero"></path>
        <path d="M10,9.58925144 C9.73158418,9.3992313 9.34457182,9.30422265 8.83895131,9.30422265 C8.18351732,9.30422265 7.63576999,9.58924859 7.19569288,10.159309 C6.75561578,10.7293695 6.53558052,11.5067129 6.53558052,12.4913628 L6.53558052,17 L5,17 L5,8.15547025 L6.53558052,8.15547025 L6.53558052,9.97792706 L6.57303371,9.97792706 C6.7915117,9.35604296 7.12546592,8.87092305 7.57490637,8.52255278 C8.02434682,8.17418252 8.52683867,8 9.082397,8 C9.48189963,8 9.78776423,8.0403067 10,8.12092131 L10,9.58925144 Z M20,8 L17.6417598,17 L16.3358939,17 L14.7150838,10.5576172 C14.653631,10.3115222 14.612663,10.0332047 14.5921788,9.72265625 L14.5614525,9.72265625 C14.5460893,9.9335948 14.4923189,10.206053 14.4001397,10.5400391 L12.6410615,17 L11.3812849,17 L9,8 L10.3212291,8 L11.9497207,14.7675781 C12.0009314,14.9726573 12.0367783,15.2421858 12.0572626,15.5761719 L12.1187151,15.5761719 C12.1340783,15.3183581 12.1801672,15.0429702 12.2569832,14.75 L14.0698324,8 L15.222067,8 L16.8505587,14.7851562 C16.9017693,15.0019542 16.9401768,15.2714828 16.9657821,15.59375 L17.0272346,15.59375 C17.0374768,15.3652332 17.0810052,15.0957047 17.1578212,14.7851562 L18.7555866,8 L20,8 Z" id="&gt;rw" fill="#989898" fill-rule="nonzero"></path>
    </g>
</svg>