<?xml version="1.0" encoding="UTF-8"?>
<svg width="16px" height="16px" viewBox="0 0 16 16" version="1.1" xmlns="http://www.w3.org/2000/svg" xmlns:xlink="http://www.w3.org/1999/xlink">
    <!-- Generator: Sketch 53.2 (72643) - https://sketchapp.com -->
    <title>services</title>
    <desc>Created with Sketch.</desc>
    <g id="services" stroke="none" stroke-width="1" fill="none" fill-rule="evenodd">
        <path d="M3.62011719,10.1826172 C3.62011719,9.7770162 3.69759037,9.38623235 3.85253906,9.01025391 C4.00748775,8.63427546 4.22851419,8.30273581 4.515625,8.015625 L6.06738281,6.47070312 L10.3945312,10.7978516 L8.84960938,12.3496094 C8.56249856,12.6367202 8.23095891,12.8577466 7.85498047,13.0126953 C7.47900203,13.167644 7.08821817,13.2451172 6.68261719,13.2451172 C6.34993323,13.2451172 6.02750807,13.1938482 5.71533203,13.0913086 C5.40315599,12.988769 5.11491018,12.8372406 4.85058594,12.6367188 L2.61523438,14.8652344 L2,14.25 L4.22851562,12.0146484 C4.02799379,11.7503242 3.87646536,11.4620784 3.77392578,11.1499023 C3.67138621,10.8377263 3.62011719,10.5153011 3.62011719,10.1826172 Z M6.68261719,12.3701172 C6.97428531,12.3701172 7.25341664,12.3142909 7.52001953,12.2026367 C7.78662243,12.0909825 8.02245991,11.9326182 8.22753906,11.7275391 L9.15722656,10.7978516 L6.06738281,7.70800781 L5.13769531,8.63769531 C4.93261616,8.84277446 4.77425186,9.07861195 4.66259766,9.34521484 C4.55094345,9.61181774 4.49511719,9.89094906 4.49511719,10.1826172 C4.49511719,10.4833999 4.55208276,10.7670885 4.66601562,11.0336914 C4.77994849,11.3002943 4.93603417,11.5327139 5.13427734,11.730957 C5.33252052,11.9292002 5.56494007,12.0852859 5.83154297,12.1992188 C6.09814586,12.3131516 6.38183443,12.3701172 6.68261719,12.3701172 Z M12.6367188,4.85058594 C12.8372406,5.11491018 12.988769,5.40315599 13.0913086,5.71533203 C13.1938482,6.02750807 13.2451172,6.34993323 13.2451172,6.68261719 C13.2451172,7.08821817 13.167644,7.47900203 13.0126953,7.85498047 C12.8577466,8.23095891 12.6367202,8.56249856 12.3496094,8.84960938 L10.7978516,10.3945312 L6.47070312,6.06738281 L8.015625,4.515625 C8.30273581,4.22851419 8.63427546,4.00748775 9.01025391,3.85253906 C9.38623235,3.69759037 9.7770162,3.62011719 10.1826172,3.62011719 C10.5153011,3.62011719 10.8377263,3.67138621 11.1499023,3.77392578 C11.4620784,3.87646536 11.7503242,4.02799379 12.0146484,4.22851562 L14.25,2 L14.8652344,2.61523438 L12.6367188,4.85058594 Z M11.7275391,8.22753906 C11.9326182,8.02245991 12.0909825,7.78662243 12.2026367,7.52001953 C12.3142909,7.25341664 12.3701172,6.97428531 12.3701172,6.68261719 C12.3701172,6.38183443 12.3120123,6.09928518 12.1958008,5.83496094 C12.0795893,5.5706367 11.9223643,5.33935646 11.7241211,5.14111328 C11.5258779,4.9428701 11.2945977,4.78564511 11.0302734,4.66943359 C10.7659492,4.55322208 10.4833999,4.49511719 10.1826172,4.49511719 C9.89094906,4.49511719 9.61181774,4.55094345 9.34521484,4.66259766 C9.07861195,4.77425186 8.84277446,4.93261616 8.63769531,5.13769531 L7.70800781,6.06738281 L10.7978516,9.15722656 L11.7275391,8.22753906 Z" id="x" fill="#989898" fill-rule="nonzero"></path>
    </g>
</svg>