<?xml version="1.0" encoding="UTF-8"?>
<svg width="24px" height="24px" viewBox="0 0 24 24" version="1.1" xmlns="http://www.w3.org/2000/svg" xmlns:xlink="http://www.w3.org/1999/xlink">
    <!-- Generator: Sketch 53.2 (72643) - https://sketchapp.com -->
    <title>storybook</title>
    <desc>Created with Sketch.</desc>
    <defs>
        <path d="M0.539875,16.5511975 L0.00065625,1.72517868 C-0.0172265625,1.23545455 0.346609375,0.820438871 0.820585938,0.789968652 L13.0426406,0.00180564263 C13.5250937,-0.0293416928 13.9406094,0.348996865 13.9707969,0.846789969 C13.9718906,0.865523511 13.9724922,0.88431348 13.9724922,0.903103448 L13.9724922,17.0587524 C13.9724922,17.5575047 13.5806563,17.9617994 13.0972734,17.9617994 C13.0841484,17.9617994 13.0710234,17.9615172 13.0580078,17.9608966 L1.37528125,17.4194859 C0.92028125,17.3984389 0.556992188,17.0208339 0.539875,16.5511975 Z" id="path-1"></path>
    </defs>
    <g id="storybook" stroke="none" stroke-width="1" fill="none" fill-rule="evenodd">
        <g id="storybook-icon" transform="translate(5.000000, 3.000000)">
            <g id="IconifyId-171bd7d129c-4b728d-6828-link" fill="#FF4785" fill-rule="nonzero">
                <path d="M0.539875,16.5511975 L0.00065625,1.72517868 C-0.0172265625,1.23545455 0.346609375,0.820438871 0.820585938,0.789968652 L13.0426406,0.00180564263 C13.5250937,-0.0293416928 13.9406094,0.348996865 13.9707969,0.846789969 C13.9718906,0.865523511 13.9724922,0.88431348 13.9724922,0.903103448 L13.9724922,17.0587524 C13.9724922,17.5575047 13.5806563,17.9617994 13.0972734,17.9617994 C13.0841484,17.9617994 13.0710234,17.9615172 13.0580078,17.9608966 L1.37528125,17.4194859 C0.92028125,17.3984389 0.556992188,17.0208339 0.539875,16.5511975 Z" id="IconifyId-171bd7d129c-4b728d-6828"></path>
            </g>
            <g id="Clipped">
                <mask id="mask-2" fill="white">
                    <use xlink:href="#path-1"></use>
                </mask>
                <g id="IconifyId-171bd7d129c-4b728d-6828"></g>
                <path d="M10.3176172,2.2077931 L10.401125,0.136043887 L12.0795937,0 L12.1518906,2.13647022 C12.1537247,2.18892519 12.1258579,2.23770133 12.0804892,2.26144614 C12.0351205,2.28519095 11.9805154,2.27957854 11.9405781,2.24706583 L11.2933516,1.72089028 L10.5270156,2.32070219 C10.48674,2.35227726 10.4324106,2.35700272 10.3875804,2.33282997 C10.3427502,2.30865722 10.3154898,2.25993794 10.3176172,2.2077931 L10.3176172,2.2077931 Z M8.17107813,6.77003135 C8.17107813,7.12139812 10.4647813,6.95302194 10.7726719,6.70621317 C10.7726719,4.31362382 9.52842188,3.05633229 7.24997656,3.05633229 C4.97158594,3.05633229 3.69501562,4.33314734 3.69501562,6.24836991 C3.69501562,9.58412539 8.05798438,9.648 8.05798438,11.4674671 C8.05798438,11.9782382 7.81555469,12.2814734 7.28229688,12.2814734 C6.58749219,12.2814734 6.31274219,11.9152665 6.3450625,10.6703887 C6.3450625,10.4003323 3.69501562,10.3161442 3.6141875,10.6703887 C3.40845312,13.687279 5.23009375,14.5574295 7.31461719,14.5574295 C9.3345,14.5574295 10.9180859,13.4465643 10.9180859,11.4355862 C10.9180859,7.86041379 6.49053125,7.95616928 6.49053125,6.18455172 C6.49053125,5.46635737 7.00760156,5.37060188 7.31467188,5.37060188 C7.63782031,5.37060188 8.21953125,5.42939812 8.17107813,6.77003135 Z" id="Shape" fill="#FFFFFF" fill-rule="nonzero" mask="url(#mask-2)"></path>
            </g>
            <rect id="Rectangle" fill-opacity="0" fill="#000000" fill-rule="nonzero" x="0" y="0" width="14" height="18"></rect>
        </g>
    </g>
</svg>